<svg xmlns="http://www.w3.org/2000/svg" viewBox="0 0 32 32">
  <clipPath id="c"><circle cx="16" cy="16" r="16"/></clipPath>
  <g clip-path="url(#c)">
    <rect x="0" y="0" width="32" height="32" fill="#002395"/>
    <polygon points="10,0 32,16 10,32" fill="#fecb00"/>
    <polygon points="9.00,1.90 9.27,2.63 10.05,2.66 9.44,3.14 9.65,3.89 9.00,3.46 8.35,3.89 8.56,3.14 7.95,2.66 8.73,2.63" fill="#fff"/>
    <polygon points="11.00,5.90 11.27,6.63 12.05,6.66 11.44,7.14 11.65,7.89 11.00,7.46 10.35,7.89 10.56,7.14 9.95,6.66 10.73,6.63" fill="#fff"/>
    <polygon points="13.00,9.90 13.27,10.63 14.05,10.66 13.44,11.14 13.65,11.89 13.00,11.46 12.35,11.89 12.56,11.14 11.95,10.66 12.73,10.63" fill="#fff"/>
    <polygon points="15.00,13.90 15.27,14.63 16.05,14.66 15.44,15.14 15.65,15.89 15.00,15.46 14.35,15.89 14.56,15.14 13.95,14.66 14.73,14.63" fill="#fff"/>
    <polygon points="17.00,17.90 17.27,18.63 18.05,18.66 17.44,19.14 17.65,19.89 17.00,19.46 16.35,19.89 16.56,19.14 15.95,18.66 16.73,18.63" fill="#fff"/>
    <polygon points="19.00,21.90 19.27,22.63 20.05,22.66 19.44,23.14 19.65,23.89 19.00,23.46 18.35,23.89 18.56,23.14 17.95,22.66 18.73,22.63" fill="#fff"/>
    <polygon points="21.00,25.90 21.27,26.63 22.05,26.66 21.44,27.14 21.65,27.89 21.00,27.46 20.35,27.89 20.56,27.14 19.95,26.66 20.73,26.63" fill="#fff"/>
  </g>
  <circle cx="16" cy="16" r="15.5" fill="none" stroke="rgba(15,23,42,.18)"/>
</svg>
