<svg xmlns="http://www.w3.org/2000/svg" viewBox="0 0 32 32">
  <clipPath id="c"><circle cx="16" cy="16" r="16"/></clipPath>
  <g clip-path="url(#c)">
    <rect x="0" y="0" width="32" height="32" fill="#00247d"/>
    <line x1="0" y1="0" x2="13" y2="9" stroke="#fff" stroke-width="2"/>
    <line x1="13" y1="0" x2="0" y2="9" stroke="#fff" stroke-width="2"/>
    <rect x="5.5" y="0" width="2" height="9" fill="#fff"/>
    <rect x="0" y="3.5" width="13" height="2" fill="#fff"/>
    <polygon points="22.00,7.00 22.49,8.32 23.90,8.38 22.80,9.26 23.18,10.62 22.00,9.84 20.82,10.62 21.20,9.26 20.10,8.38 21.51,8.32" fill="#cc142b"/>
    <polygon points="27.00,13.00 27.49,14.32 28.90,14.38 27.80,15.26 28.18,16.62 27.00,15.84 25.82,16.62 26.20,15.26 25.10,14.38 26.51,14.32" fill="#cc142b"/>
    <polygon points="21.00,20.00 21.49,21.32 22.90,21.38 21.80,22.26 22.18,23.62 21.00,22.84 19.82,23.62 20.20,22.26 19.10,21.38 20.51,21.32" fill="#cc142b"/>
    <polygon points="27.00,23.50 27.37,24.49 28.43,24.54 27.60,25.19 27.88,26.21 27.00,25.63 26.12,26.21 26.40,25.19 25.57,24.54 26.63,24.49" fill="#cc142b"/>
  </g>
  <circle cx="16" cy="16" r="15.5" fill="none" stroke="rgba(15,23,42,.18)"/>
</svg>
