<svg xmlns="http://www.w3.org/2000/svg" viewBox="0 0 32 32">
  <clipPath id="c"><circle cx="16" cy="16" r="16"/></clipPath>
  <g clip-path="url(#c)">
    <rect x="0" y="0" width="16" height="16" fill="#fff"/>
    <rect x="16" y="0" width="16" height="16" fill="#d21034"/>
    <rect x="0" y="16" width="16" height="16" fill="#005293"/>
    <rect x="16" y="16" width="16" height="16" fill="#fff"/>
    <polygon points="8.00,5.00 8.74,6.98 10.85,7.07 9.20,8.39 9.76,10.43 8.00,9.26 6.24,10.43 6.80,8.39 5.15,7.07 7.26,6.98" fill="#005293"/>
    <polygon points="24.00,21.00 24.74,22.98 26.85,23.07 25.20,24.39 25.76,26.43 24.00,25.26 22.24,26.43 22.80,24.39 21.15,23.07 23.26,22.98" fill="#d21034"/>
  </g>
  <circle cx="16" cy="16" r="15.5" fill="none" stroke="rgba(15,23,42,.18)"/>
</svg>
