<svg xmlns="http://www.w3.org/2000/svg" viewBox="0 0 32 32">
  <clipPath id="c"><circle cx="16" cy="16" r="16"/></clipPath>
  <g clip-path="url(#c)">
    <rect x="0" y="0" width="32" height="32" fill="#fff"/>
    <rect x="0" y="0" width="32" height="2.46" fill="#b22234"/>
    <rect x="0" y="4.92" width="32" height="2.46" fill="#b22234"/>
    <rect x="0" y="9.85" width="32" height="2.46" fill="#b22234"/>
    <rect x="0" y="14.77" width="32" height="2.46" fill="#b22234"/>
    <rect x="0" y="19.69" width="32" height="2.46" fill="#b22234"/>
    <rect x="0" y="24.62" width="32" height="2.46" fill="#b22234"/>
    <rect x="0" y="29.54" width="32" height="2.46" fill="#b22234"/>
    <rect x="0" y="0" width="14.8" height="17.23" fill="#3c3b6e"/>
    <polygon points="3.00,2.00 3.25,2.66 3.95,2.69 3.40,3.13 3.59,3.81 3.00,3.42 2.41,3.81 2.60,3.13 2.05,2.69 2.75,2.66" fill="#fff"/>
    <polygon points="7.00,4.00 7.25,4.66 7.95,4.69 7.40,5.13 7.59,5.81 7.00,5.42 6.41,5.81 6.60,5.13 6.05,4.69 6.75,4.66" fill="#fff"/>
    <polygon points="11.00,2.00 11.25,2.66 11.95,2.69 11.40,3.13 11.59,3.81 11.00,3.42 10.41,3.81 10.60,3.13 10.05,2.69 10.75,2.66" fill="#fff"/>
    <polygon points="4.00,9.00 4.25,9.66 4.95,9.69 4.40,10.13 4.59,10.81 4.00,10.42 3.41,10.81 3.60,10.13 3.05,9.69 3.75,9.66" fill="#fff"/>
    <polygon points="9.00,11.00 9.25,11.66 9.95,11.69 9.40,12.13 9.59,12.81 9.00,12.42 8.41,12.81 8.60,12.13 8.05,11.69 8.75,11.66" fill="#fff"/>
  </g>
  <circle cx="16" cy="16" r="15.5" fill="none" stroke="rgba(15,23,42,.18)"/>
</svg>
